<mxfile host="app.diagrams.net" modified="2020-10-30T06:50:57.420Z" agent="5.0 (Macintosh; Intel Mac OS X 10_15_7) AppleWebKit/605.1.15 (KHTML, like Gecko) Version/14.0 Safari/605.1.15" etag="u05Q6sX99auPq2fECutY" version="13.8.7" type="github">
  <diagram id="2eJShxUdrmRkldydG_vm" name="Page-1">
    <mxGraphModel dx="935" dy="1101" grid="1" gridSize="10" guides="1" tooltips="1" connect="1" arrows="1" fold="1" page="1" pageScale="1" pageWidth="827" pageHeight="1169" math="0" shadow="0">
      <root>
        <mxCell id="0" />
        <mxCell id="1" parent="0" />
        <mxCell id="suNLH_dV_TO3AzN7YnnX-34" style="edgeStyle=orthogonalEdgeStyle;rounded=0;orthogonalLoop=1;jettySize=auto;html=1;exitX=0.5;exitY=1;exitDx=0;exitDy=0;" parent="1" source="suNLH_dV_TO3AzN7YnnX-2" target="suNLH_dV_TO3AzN7YnnX-14" edge="1">
          <mxGeometry relative="1" as="geometry" />
        </mxCell>
        <mxCell id="suNLH_dV_TO3AzN7YnnX-2" value="平台" style="ellipse;whiteSpace=wrap;html=1;" parent="1" vertex="1">
          <mxGeometry x="830" y="50" width="120" height="80" as="geometry" />
        </mxCell>
        <mxCell id="suNLH_dV_TO3AzN7YnnX-24" style="edgeStyle=orthogonalEdgeStyle;rounded=0;orthogonalLoop=1;jettySize=auto;html=1;exitX=0.5;exitY=1;exitDx=0;exitDy=0;entryX=0.5;entryY=0;entryDx=0;entryDy=0;" parent="1" source="suNLH_dV_TO3AzN7YnnX-3" target="suNLH_dV_TO3AzN7YnnX-11" edge="1">
          <mxGeometry relative="1" as="geometry" />
        </mxCell>
        <mxCell id="suNLH_dV_TO3AzN7YnnX-3" value="设备" style="ellipse;whiteSpace=wrap;html=1;" parent="1" vertex="1">
          <mxGeometry x="590" y="50" width="120" height="80" as="geometry" />
        </mxCell>
        <mxCell id="suNLH_dV_TO3AzN7YnnX-4" value="app" style="ellipse;whiteSpace=wrap;html=1;" parent="1" vertex="1">
          <mxGeometry x="1070" y="50" width="120" height="80" as="geometry" />
        </mxCell>
        <mxCell id="suNLH_dV_TO3AzN7YnnX-7" value="创建低功耗产品&lt;br&gt;并设置休眠周期&lt;br&gt;（厂家通过web端操作）" style="rounded=0;whiteSpace=wrap;html=1;" parent="1" vertex="1">
          <mxGeometry x="350" y="170" width="140" height="60" as="geometry" />
        </mxCell>
        <mxCell id="suNLH_dV_TO3AzN7YnnX-25" style="edgeStyle=orthogonalEdgeStyle;rounded=0;orthogonalLoop=1;jettySize=auto;html=1;exitX=0.5;exitY=1;exitDx=0;exitDy=0;entryX=0.5;entryY=0;entryDx=0;entryDy=0;" parent="1" source="suNLH_dV_TO3AzN7YnnX-11" target="suNLH_dV_TO3AzN7YnnX-12" edge="1">
          <mxGeometry relative="1" as="geometry" />
        </mxCell>
        <mxCell id="suNLH_dV_TO3AzN7YnnX-11" value="采用低功耗SDK接入平台" style="rounded=0;whiteSpace=wrap;html=1;" parent="1" vertex="1">
          <mxGeometry x="590" y="290" width="120" height="60" as="geometry" />
        </mxCell>
        <mxCell id="suNLH_dV_TO3AzN7YnnX-26" style="edgeStyle=orthogonalEdgeStyle;rounded=0;orthogonalLoop=1;jettySize=auto;html=1;exitX=0.5;exitY=1;exitDx=0;exitDy=0;entryX=0.5;entryY=0;entryDx=0;entryDy=0;" parent="1" source="suNLH_dV_TO3AzN7YnnX-12" target="suNLH_dV_TO3AzN7YnnX-13" edge="1">
          <mxGeometry relative="1" as="geometry" />
        </mxCell>
        <mxCell id="suNLH_dV_TO3AzN7YnnX-12" value="配网绑定后进入工作状态" style="rounded=0;whiteSpace=wrap;html=1;" parent="1" vertex="1">
          <mxGeometry x="590" y="390" width="120" height="60" as="geometry" />
        </mxCell>
        <mxCell id="suNLH_dV_TO3AzN7YnnX-51" style="edgeStyle=orthogonalEdgeStyle;rounded=0;orthogonalLoop=1;jettySize=auto;html=1;exitX=1;exitY=0.5;exitDx=0;exitDy=0;entryX=0;entryY=0.5;entryDx=0;entryDy=0;" parent="1" source="suNLH_dV_TO3AzN7YnnX-13" target="suNLH_dV_TO3AzN7YnnX-27" edge="1">
          <mxGeometry relative="1" as="geometry" />
        </mxCell>
        <mxCell id="suNLH_dV_TO3AzN7YnnX-54" style="edgeStyle=orthogonalEdgeStyle;rounded=0;orthogonalLoop=1;jettySize=auto;html=1;exitX=0.5;exitY=1;exitDx=0;exitDy=0;entryX=0.5;entryY=0;entryDx=0;entryDy=0;" parent="1" source="suNLH_dV_TO3AzN7YnnX-13" target="suNLH_dV_TO3AzN7YnnX-16" edge="1">
          <mxGeometry relative="1" as="geometry" />
        </mxCell>
        <mxCell id="suNLH_dV_TO3AzN7YnnX-13" value="设备进入休眠期&lt;br&gt;并上报低功耗状态" style="rounded=0;whiteSpace=wrap;html=1;" parent="1" vertex="1">
          <mxGeometry x="590" y="500" width="120" height="60" as="geometry" />
        </mxCell>
        <mxCell id="suNLH_dV_TO3AzN7YnnX-47" style="edgeStyle=orthogonalEdgeStyle;rounded=0;orthogonalLoop=1;jettySize=auto;html=1;exitX=0.5;exitY=1;exitDx=0;exitDy=0;entryX=0.5;entryY=0;entryDx=0;entryDy=0;" parent="1" source="suNLH_dV_TO3AzN7YnnX-14" target="suNLH_dV_TO3AzN7YnnX-40" edge="1">
          <mxGeometry relative="1" as="geometry">
            <mxPoint x="890" y="290" as="targetPoint" />
          </mxGeometry>
        </mxCell>
        <mxCell id="suNLH_dV_TO3AzN7YnnX-14" value="周期性（1小时？）轮询进入低功耗状态的设备" style="rounded=0;whiteSpace=wrap;html=1;" parent="1" vertex="1">
          <mxGeometry x="830" y="180" width="120" height="60" as="geometry" />
        </mxCell>
        <mxCell id="suNLH_dV_TO3AzN7YnnX-97" style="edgeStyle=none;rounded=0;orthogonalLoop=1;jettySize=auto;html=1;exitX=0.5;exitY=1;exitDx=0;exitDy=0;entryX=0.5;entryY=-0.1;entryDx=0;entryDy=0;entryPerimeter=0;" parent="1" source="suNLH_dV_TO3AzN7YnnX-16" target="suNLH_dV_TO3AzN7YnnX-93" edge="1">
          <mxGeometry relative="1" as="geometry" />
        </mxCell>
        <mxCell id="suNLH_dV_TO3AzN7YnnX-16" value="休眠周期内唤醒&lt;br&gt;（手动/自动）" style="rhombus;whiteSpace=wrap;html=1;" parent="1" vertex="1">
          <mxGeometry x="590" y="730" width="120" height="80" as="geometry" />
        </mxCell>
        <mxCell id="suNLH_dV_TO3AzN7YnnX-59" style="edgeStyle=orthogonalEdgeStyle;rounded=0;orthogonalLoop=1;jettySize=auto;html=1;exitX=1;exitY=0.5;exitDx=0;exitDy=0;entryX=0;entryY=0.5;entryDx=0;entryDy=0;" parent="1" source="suNLH_dV_TO3AzN7YnnX-18" target="suNLH_dV_TO3AzN7YnnX-20" edge="1">
          <mxGeometry relative="1" as="geometry" />
        </mxCell>
        <mxCell id="suNLH_dV_TO3AzN7YnnX-18" value="重制轮询表中该设备的生命周期" style="rounded=0;whiteSpace=wrap;html=1;" parent="1" vertex="1">
          <mxGeometry x="830" y="880" width="120" height="60" as="geometry" />
        </mxCell>
        <mxCell id="suNLH_dV_TO3AzN7YnnX-19" value="显示该设备进入低功耗状态，并提示用户无法通过模版进行控制，如需控制需要手动唤醒设备" style="rounded=0;whiteSpace=wrap;html=1;" parent="1" vertex="1">
          <mxGeometry x="1060" y="695" width="140" height="90" as="geometry" />
        </mxCell>
        <mxCell id="suNLH_dV_TO3AzN7YnnX-20" value="显示该设备上线" style="rounded=0;whiteSpace=wrap;html=1;" parent="1" vertex="1">
          <mxGeometry x="1070" y="880" width="120" height="60" as="geometry" />
        </mxCell>
        <mxCell id="suNLH_dV_TO3AzN7YnnX-21" value="显示该设备离线" style="rounded=0;whiteSpace=wrap;html=1;" parent="1" vertex="1">
          <mxGeometry x="1070" y="530" width="120" height="60" as="geometry" />
        </mxCell>
        <mxCell id="suNLH_dV_TO3AzN7YnnX-53" style="edgeStyle=orthogonalEdgeStyle;rounded=0;orthogonalLoop=1;jettySize=auto;html=1;exitX=1;exitY=0.5;exitDx=0;exitDy=0;" parent="1" source="suNLH_dV_TO3AzN7YnnX-27" target="suNLH_dV_TO3AzN7YnnX-19" edge="1">
          <mxGeometry relative="1" as="geometry" />
        </mxCell>
        <mxCell id="suNLH_dV_TO3AzN7YnnX-27" value="轮询表中加入该设备，生命周期为厂家设置的休眠周期" style="rounded=0;whiteSpace=wrap;html=1;" parent="1" vertex="1">
          <mxGeometry x="830" y="710" width="120" height="60" as="geometry" />
        </mxCell>
        <mxCell id="suNLH_dV_TO3AzN7YnnX-32" value="web端" style="ellipse;whiteSpace=wrap;html=1;" parent="1" vertex="1">
          <mxGeometry x="360" y="50" width="120" height="80" as="geometry" />
        </mxCell>
        <mxCell id="suNLH_dV_TO3AzN7YnnX-84" style="edgeStyle=none;rounded=0;orthogonalLoop=1;jettySize=auto;html=1;entryX=1;entryY=0.5;entryDx=0;entryDy=0;" parent="1" source="suNLH_dV_TO3AzN7YnnX-85" target="suNLH_dV_TO3AzN7YnnX-14" edge="1">
          <mxGeometry relative="1" as="geometry">
            <mxPoint x="1035" y="290" as="sourcePoint" />
            <Array as="points">
              <mxPoint x="1035" y="210" />
            </Array>
          </mxGeometry>
        </mxCell>
        <mxCell id="suNLH_dV_TO3AzN7YnnX-102" style="edgeStyle=none;rounded=0;orthogonalLoop=1;jettySize=auto;html=1;exitX=1;exitY=0.5;exitDx=0;exitDy=0;entryX=0.533;entryY=1;entryDx=0;entryDy=0;entryPerimeter=0;" parent="1" source="suNLH_dV_TO3AzN7YnnX-40" target="suNLH_dV_TO3AzN7YnnX-85" edge="1">
          <mxGeometry relative="1" as="geometry">
            <mxPoint x="1040" y="370" as="targetPoint" />
            <Array as="points">
              <mxPoint x="1036" y="370" />
            </Array>
          </mxGeometry>
        </mxCell>
        <mxCell id="suNLH_dV_TO3AzN7YnnX-40" value="是否有设备生命周期结束" style="rhombus;whiteSpace=wrap;html=1;" parent="1" vertex="1">
          <mxGeometry x="830" y="330" width="120" height="80" as="geometry" />
        </mxCell>
        <mxCell id="suNLH_dV_TO3AzN7YnnX-50" style="edgeStyle=orthogonalEdgeStyle;rounded=0;orthogonalLoop=1;jettySize=auto;html=1;entryX=0;entryY=0.5;entryDx=0;entryDy=0;" parent="1" target="suNLH_dV_TO3AzN7YnnX-14" edge="1">
          <mxGeometry relative="1" as="geometry">
            <mxPoint x="890" y="560" as="sourcePoint" />
            <Array as="points">
              <mxPoint x="890" y="630" />
              <mxPoint x="800" y="630" />
              <mxPoint x="800" y="210" />
            </Array>
          </mxGeometry>
        </mxCell>
        <mxCell id="suNLH_dV_TO3AzN7YnnX-58" value="" style="endArrow=none;html=1;" parent="1" edge="1">
          <mxGeometry width="50" height="50" relative="1" as="geometry">
            <mxPoint x="420" y="1130" as="sourcePoint" />
            <mxPoint x="419.5" y="350" as="targetPoint" />
          </mxGeometry>
        </mxCell>
        <mxCell id="suNLH_dV_TO3AzN7YnnX-60" value="" style="endArrow=none;html=1;exitX=0.5;exitY=0;exitDx=0;exitDy=0;" parent="1" source="suNLH_dV_TO3AzN7YnnX-21" edge="1">
          <mxGeometry width="50" height="50" relative="1" as="geometry">
            <mxPoint x="1129.5" y="190" as="sourcePoint" />
            <mxPoint x="1129.5" y="130" as="targetPoint" />
          </mxGeometry>
        </mxCell>
        <mxCell id="suNLH_dV_TO3AzN7YnnX-63" value="" style="endArrow=none;html=1;exitX=0.5;exitY=0;exitDx=0;exitDy=0;" parent="1" source="suNLH_dV_TO3AzN7YnnX-7" edge="1">
          <mxGeometry width="50" height="50" relative="1" as="geometry">
            <mxPoint x="420" y="140" as="sourcePoint" />
            <mxPoint x="419.5" y="130" as="targetPoint" />
          </mxGeometry>
        </mxCell>
        <mxCell id="suNLH_dV_TO3AzN7YnnX-64" value="" style="endArrow=none;html=1;exitX=0.5;exitY=0;exitDx=0;exitDy=0;" parent="1" source="suNLH_dV_TO3AzN7YnnX-19" edge="1">
          <mxGeometry width="50" height="50" relative="1" as="geometry">
            <mxPoint x="1130" y="690" as="sourcePoint" />
            <mxPoint x="1130" y="590" as="targetPoint" />
          </mxGeometry>
        </mxCell>
        <mxCell id="suNLH_dV_TO3AzN7YnnX-65" value="" style="endArrow=none;html=1;exitX=0.5;exitY=0;exitDx=0;exitDy=0;" parent="1" source="suNLH_dV_TO3AzN7YnnX-20" edge="1">
          <mxGeometry width="50" height="50" relative="1" as="geometry">
            <mxPoint x="1129.5" y="855" as="sourcePoint" />
            <mxPoint x="1129.5" y="785" as="targetPoint" />
          </mxGeometry>
        </mxCell>
        <mxCell id="suNLH_dV_TO3AzN7YnnX-72" style="edgeStyle=none;rounded=0;orthogonalLoop=1;jettySize=auto;html=1;exitX=1;exitY=0.5;exitDx=0;exitDy=0;entryX=0;entryY=0.5;entryDx=0;entryDy=0;" parent="1" source="suNLH_dV_TO3AzN7YnnX-70" target="suNLH_dV_TO3AzN7YnnX-11" edge="1">
          <mxGeometry relative="1" as="geometry" />
        </mxCell>
        <mxCell id="suNLH_dV_TO3AzN7YnnX-70" value="下载SDK" style="rounded=0;whiteSpace=wrap;html=1;" parent="1" vertex="1">
          <mxGeometry x="360" y="290" width="120" height="60" as="geometry" />
        </mxCell>
        <mxCell id="suNLH_dV_TO3AzN7YnnX-73" value="" style="endArrow=none;html=1;exitX=0.5;exitY=0;exitDx=0;exitDy=0;" parent="1" source="suNLH_dV_TO3AzN7YnnX-70" edge="1">
          <mxGeometry width="50" height="50" relative="1" as="geometry">
            <mxPoint x="420" y="270" as="sourcePoint" />
            <mxPoint x="419.5" y="230" as="targetPoint" />
          </mxGeometry>
        </mxCell>
        <mxCell id="suNLH_dV_TO3AzN7YnnX-76" value="" style="endArrow=none;html=1;exitX=0.5;exitY=0;exitDx=0;exitDy=0;" parent="1" edge="1">
          <mxGeometry width="50" height="50" relative="1" as="geometry">
            <mxPoint x="890" y="710" as="sourcePoint" />
            <mxPoint x="890" y="610" as="targetPoint" />
          </mxGeometry>
        </mxCell>
        <mxCell id="suNLH_dV_TO3AzN7YnnX-77" value="" style="endArrow=none;html=1;exitX=0.5;exitY=0;exitDx=0;exitDy=0;" parent="1" source="suNLH_dV_TO3AzN7YnnX-18" edge="1">
          <mxGeometry width="50" height="50" relative="1" as="geometry">
            <mxPoint x="890" y="850" as="sourcePoint" />
            <mxPoint x="889.5" y="770" as="targetPoint" />
          </mxGeometry>
        </mxCell>
        <mxCell id="suNLH_dV_TO3AzN7YnnX-78" value="" style="endArrow=none;html=1;exitX=0.5;exitY=0;exitDx=0;exitDy=0;" parent="1" edge="1">
          <mxGeometry width="50" height="50" relative="1" as="geometry">
            <mxPoint x="1130" y="1130" as="sourcePoint" />
            <mxPoint x="1129.5" y="1070" as="targetPoint" />
          </mxGeometry>
        </mxCell>
        <mxCell id="suNLH_dV_TO3AzN7YnnX-79" value="" style="endArrow=none;html=1;exitX=0.5;exitY=0;exitDx=0;exitDy=0;" parent="1" source="suNLH_dV_TO3AzN7YnnX-115" edge="1">
          <mxGeometry width="50" height="50" relative="1" as="geometry">
            <mxPoint x="1130" y="1000" as="sourcePoint" />
            <mxPoint x="1129.5" y="940" as="targetPoint" />
          </mxGeometry>
        </mxCell>
        <mxCell id="suNLH_dV_TO3AzN7YnnX-103" style="edgeStyle=none;rounded=0;orthogonalLoop=1;jettySize=auto;html=1;entryX=0;entryY=0.5;entryDx=0;entryDy=0;" parent="1" source="suNLH_dV_TO3AzN7YnnX-82" target="suNLH_dV_TO3AzN7YnnX-21" edge="1">
          <mxGeometry relative="1" as="geometry">
            <Array as="points">
              <mxPoint x="890" y="560" />
            </Array>
          </mxGeometry>
        </mxCell>
        <mxCell id="suNLH_dV_TO3AzN7YnnX-82" value="是" style="text;html=1;align=center;verticalAlign=middle;resizable=0;points=[];autosize=1;" parent="1" vertex="1">
          <mxGeometry x="875" y="460" width="30" height="20" as="geometry" />
        </mxCell>
        <mxCell id="suNLH_dV_TO3AzN7YnnX-83" style="edgeStyle=orthogonalEdgeStyle;rounded=0;orthogonalLoop=1;jettySize=auto;html=1;exitX=0.5;exitY=1;exitDx=0;exitDy=0;entryX=0.5;entryY=0;entryDx=0;entryDy=0;" parent="1" source="suNLH_dV_TO3AzN7YnnX-40" target="suNLH_dV_TO3AzN7YnnX-82" edge="1">
          <mxGeometry relative="1" as="geometry">
            <mxPoint x="890" y="460" as="sourcePoint" />
            <mxPoint x="890" y="500" as="targetPoint" />
          </mxGeometry>
        </mxCell>
        <mxCell id="suNLH_dV_TO3AzN7YnnX-85" value="否" style="text;html=1;align=center;verticalAlign=middle;resizable=0;points=[];autosize=1;" parent="1" vertex="1">
          <mxGeometry x="1020" y="290" width="30" height="20" as="geometry" />
        </mxCell>
        <mxCell id="suNLH_dV_TO3AzN7YnnX-108" style="edgeStyle=none;rounded=0;orthogonalLoop=1;jettySize=auto;html=1;entryX=0.5;entryY=0;entryDx=0;entryDy=0;" parent="1" source="suNLH_dV_TO3AzN7YnnX-93" target="suNLH_dV_TO3AzN7YnnX-107" edge="1">
          <mxGeometry relative="1" as="geometry" />
        </mxCell>
        <mxCell id="suNLH_dV_TO3AzN7YnnX-93" value="是" style="text;html=1;align=center;verticalAlign=middle;resizable=0;points=[];autosize=1;" parent="1" vertex="1">
          <mxGeometry x="635" y="830" width="30" height="20" as="geometry" />
        </mxCell>
        <mxCell id="suNLH_dV_TO3AzN7YnnX-99" value="" style="endArrow=none;html=1;exitX=0.5;exitY=0;exitDx=0;exitDy=0;" parent="1" source="suNLH_dV_TO3AzN7YnnX-113" edge="1">
          <mxGeometry width="50" height="50" relative="1" as="geometry">
            <mxPoint x="890" y="1000" as="sourcePoint" />
            <mxPoint x="889.5" y="940" as="targetPoint" />
          </mxGeometry>
        </mxCell>
        <mxCell id="suNLH_dV_TO3AzN7YnnX-109" style="edgeStyle=none;rounded=0;orthogonalLoop=1;jettySize=auto;html=1;entryX=0;entryY=0.5;entryDx=0;entryDy=0;" parent="1" source="suNLH_dV_TO3AzN7YnnX-107" target="suNLH_dV_TO3AzN7YnnX-18" edge="1">
          <mxGeometry relative="1" as="geometry" />
        </mxCell>
        <mxCell id="suNLH_dV_TO3AzN7YnnX-110" value="上线" style="edgeLabel;html=1;align=center;verticalAlign=middle;resizable=0;points=[];" parent="suNLH_dV_TO3AzN7YnnX-109" vertex="1" connectable="0">
          <mxGeometry x="-0.1167" y="1" relative="1" as="geometry">
            <mxPoint as="offset" />
          </mxGeometry>
        </mxCell>
        <mxCell id="suNLH_dV_TO3AzN7YnnX-114" style="edgeStyle=orthogonalEdgeStyle;rounded=0;orthogonalLoop=1;jettySize=auto;html=1;entryX=0;entryY=0.5;entryDx=0;entryDy=0;" parent="1" source="suNLH_dV_TO3AzN7YnnX-107" target="suNLH_dV_TO3AzN7YnnX-113" edge="1">
          <mxGeometry relative="1" as="geometry">
            <Array as="points">
              <mxPoint x="650" y="1040" />
            </Array>
          </mxGeometry>
        </mxCell>
        <mxCell id="suNLH_dV_TO3AzN7YnnX-121" value="再次休眠" style="edgeLabel;html=1;align=center;verticalAlign=middle;resizable=0;points=[];" parent="suNLH_dV_TO3AzN7YnnX-114" vertex="1" connectable="0">
          <mxGeometry x="0.2667" y="-3" relative="1" as="geometry">
            <mxPoint y="-3" as="offset" />
          </mxGeometry>
        </mxCell>
        <mxCell id="suNLH_dV_TO3AzN7YnnX-107" value="上线/唤醒后再次休眠" style="rhombus;whiteSpace=wrap;html=1;" parent="1" vertex="1">
          <mxGeometry x="590" y="870" width="120" height="80" as="geometry" />
        </mxCell>
        <mxCell id="suNLH_dV_TO3AzN7YnnX-118" style="edgeStyle=orthogonalEdgeStyle;rounded=0;orthogonalLoop=1;jettySize=auto;html=1;entryX=0;entryY=0.5;entryDx=0;entryDy=0;" parent="1" source="suNLH_dV_TO3AzN7YnnX-113" target="suNLH_dV_TO3AzN7YnnX-115" edge="1">
          <mxGeometry relative="1" as="geometry" />
        </mxCell>
        <mxCell id="suNLH_dV_TO3AzN7YnnX-113" value="重制轮询表中该设备的生命周期" style="rounded=0;whiteSpace=wrap;html=1;" parent="1" vertex="1">
          <mxGeometry x="830" y="1010" width="120" height="60" as="geometry" />
        </mxCell>
        <mxCell id="suNLH_dV_TO3AzN7YnnX-115" value="继续显示休眠" style="rounded=0;whiteSpace=wrap;html=1;" parent="1" vertex="1">
          <mxGeometry x="1070" y="1010" width="120" height="60" as="geometry" />
        </mxCell>
        <mxCell id="suNLH_dV_TO3AzN7YnnX-116" value="" style="endArrow=none;html=1;exitX=0.5;exitY=0;exitDx=0;exitDy=0;" parent="1" edge="1">
          <mxGeometry width="50" height="50" relative="1" as="geometry">
            <mxPoint x="890" y="1130" as="sourcePoint" />
            <mxPoint x="889.5" y="1070" as="targetPoint" />
          </mxGeometry>
        </mxCell>
        <mxCell id="suNLH_dV_TO3AzN7YnnX-117" value="" style="endArrow=none;html=1;" parent="1" edge="1">
          <mxGeometry width="50" height="50" relative="1" as="geometry">
            <mxPoint x="650" y="1130" as="sourcePoint" />
            <mxPoint x="649.5" y="1040" as="targetPoint" />
          </mxGeometry>
        </mxCell>
      </root>
    </mxGraphModel>
  </diagram>
</mxfile>
